Patient4_TMGait_0pt4_03_left_31_EMG.mot
version=1
nRows=36
nColumns=33
inDegrees=no
endheader
time	1LAddLong	2LGlutMax	3LGlutMed	4LIliopsoas	5LSemiMemb	6LBicFemLong	7LRecFem	8LVastMed	9LVastLat	10LGasMed	11LTibAnt	12lTibPost	13LPeroneusLong	14LSol	15LExtDigLong	16LFlexDigLong	17RAddLong	18RGlutMax	19RGlutMed	20RIliopsoas	21RSemiMemb	22RBicFemLong	23RRecFem	24RVastMed	25RVastLat	26RGasMed	27RTibAnt	28RTibPost	29RPeroneusLong	30RSol	31RExtDigLong	32RFlexDigLong
40.84	0.006104	-0.026703	-0.006561	-0.001526	-0.000458	0.035095	0.036926	0.019073	-0.19165	-0.025024	0.007629	-0.000763	-0.006104	-0.07843	-0.2121	-0.028229	-0.013123	-0.27756	0.1593	0.14664	0.10315	-0.02594	-0.06134	-0.20676	0.069733	0.015259	0.08194	-0.005188	-0.06958	-0.060883	-0.00412	-0.009003
40.841	0.001373	-0.034332	-0.007782	-0.019684	0.00946	0.03952	0.019226	0.008087	-0.21393	-0.034027	0.016785	0.00473	0.023956	-0.12192	-0.24643	-0.016327	0.022583	-0.28244	-0.58548	0.17334	0.047455	-0.036621	0.025787	-0.18723	0.001984	0.042725	0.10071	-0.006104	1.073	0.029602	-0.002289	-0.011292
40.842	0.00061	-0.048065	-0.024414	0.001831	0.021362	0.044403	0.044098	0.011749	-0.21286	-0.010681	0.056915	0.002594	0.0383	-0.12482	-0.10498	-0.019836	0.028381	-0.29572	-0.15717	0.08667	0.014038	-0.021057	-0.054016	-0.066681	-0.069885	0.007324	0.032043	0	2.0619	-0.10864	-0.004272	-0.010529
40.843	0.002289	-0.055237	-0.012207	-0.001831	0.0177	0.054016	0.013123	0.007629	-0.22797	-0.032806	-0.001678	0.003204	0.086975	-0.045013	-0.067291	-0.014801	0.025635	-0.3305	-0.07431	0.10635	0.00473	-0.004578	0.077209	0.029755	-0.045624	-0.027924	0.05127	-0.011749	-0.33569	-0.083771	-0.006256	-0.013123
40.844	0.009766	-0.097809	-0.02182	0.008545	0.015106	0.050049	0.022278	0.007324	-0.21103	-0.040131	0.056763	0.005341	0.080414	-0.03952	0.006409	-0.010529	0.011597	-0.39337	0.50812	0.11078	-0.001678	0.001221	0.15518	-0.030365	-0.12741	-0.020599	0.083923	-0.001373	-1.6704	-0.30243	-0.005951	-0.002136
40.845	0.002594	-0.082245	-0.026398	0.025177	0.000763	0.049133	0.023651	0.01358	-0.19974	-0.014801	-0.020294	0.000458	0.036469	-0.10498	0.06897	-0.012207	0.025482	-0.44739	0.72708	0.063629	-0.015564	0.028687	0.16205	-0.097198	-0.17456	-0.008698	0.062103	-0.003357	-0.85953	-0.39581	-0.005493	-0.004425
40.846	-0.000153	-0.079803	-0.001068	-0.009155	-0.002441	0.030823	0.020294	0.006104	-0.18097	-0.015717	-0.2063	0.003357	0.039673	-0.16022	0.081024	-0.010681	0.02182	-0.4155	0.84244	-0.023804	-0.012817	-0.008698	0.079803	-0.091705	-0.17105	-0.037384	-0.024719	-0.005341	0.84412	-0.024261	-0.001526	-0.00824
40.847	0.000916	-0.095978	-0.012817	-0.004272	0.001373	0.030365	-0.005035	0.013885	-0.17685	0.003967	-0.09201	0.005646	0.046539	-0.18967	-0.0177	-0.024109	0.02182	-0.42694	0.81329	-0.13809	-0.0177	0.018463	-0.070038	-0.10147	-0.086975	-0.029449	0.080109	-0.014343	0.2681	0.32761	-0.007172	-0.00946
40.848	0.006714	-0.13229	-0.008392	-0.016022	0.006256	0.03418	0.006104	0.007019	-0.16312	0.00824	-0.024261	0.005798	0.04715	-0.1471	0.077362	-0.010681	0.010376	-0.47913	-0.3447	-0.067139	-0.01709	0.033875	-0.029907	-0.064545	-0.046844	-0.012665	-0.061646	-0.008698	0.96619	0.35812	-0.005646	-0.006104
40.849	0.007629	-0.13229	0.035706	-0.015411	0.012512	0.057068	-0.003662	-0.000305	-0.15671	0.027161	0.00824	0.000763	0.014954	-0.075684	0.31296	-0.021362	0.004578	-0.49149	-0.43747	0.03067	-0.001068	0.037689	-0.10803	0.052338	0.13825	-0.015106	-0.074463	-0.004425	-0.38162	0.048981	-0.005493	0.001984
40.85	-0.001221	-0.13931	0.046692	0.003357	0.018005	0.050201	-0.000153	0.062408	-0.13184	0.035095	0.16602	0.011597	-0.017242	-0.08316	0.30579	-0.009003	-0.010071	-0.55756	-0.21973	0.049591	0.004578	0.054932	-0.2301	0.09964	0.51895	-0.005188	-0.006714	-0.002136	-0.36346	-0.16922	-0.005798	-0.003052
40.851	-0.001068	-0.17364	0.010529	-0.013275	0.015717	0.051575	-0.025787	0.012512	-0.12863	0.005646	0.010376	0.009003	-0.018311	-0.076599	0.22293	0.001221	0.002289	-0.63492	-0.14984	-0.001984	-0.005798	0.033417	0.052643	0.001984	0.49683	-0.011902	-0.033264	-0.00351	-0.24872	-0.12131	-0.003815	-0.000916
40.852	0.011292	-0.12344	0.01297	-0.010834	0.022583	0.04776	-0.015106	-0.001526	-0.10391	-0.023499	-0.040436	0.012817	0.05661	-0.041351	0.088959	-0.002899	0.018768	-0.52811	-0.12711	-0.048676	-0.030823	0.007629	0.074005	-0.066376	0.34683	-0.003052	0.006409	0.001068	-1.3014	-0.43778	0.000916	-0.003662
40.853	0.007324	-0.12039	-0.002594	-0.013733	0.026703	0.05188	-0.023651	0.014496	-0.08255	-0.025177	0.003204	0.004883	0.065002	-0.068665	-0.23056	-0.013123	-0.003357	-0.46967	-0.048828	-0.054932	-0.018616	0.011749	-0.26154	-0.000763	0.22919	0.020599	-0.007935	-0.003357	-0.91751	-0.27176	0.003052	-0.005341
40.854	0.007172	-0.16007	-0.010986	-0.001678	0.017395	0.039063	-0.026398	0.00885	-0.053558	-0.027008	0.024109	0.004578	0.031586	-0.043182	-0.19272	-0.000305	0.000458	-0.41962	-0.13229	-0.009766	-0.00824	0.028076	-0.1648	-0.017242	0.10513	0.022583	-0.035553	-0.00885	0.077667	0.17425	-0.003204	-0.010681
40.855	0.007477	-0.15106	-0.006104	-0.00061	-0.015106	0.041351	-0.019989	0.010681	-0.024261	-0.021973	0.003357	0.00412	0.024109	-0.056915	-0.055542	-0.018616	0.00824	-0.39352	-0.37033	0.052948	-0.023499	0.025787	-0.1741	-0.07843	0.00885	0.007019	-0.057373	-0.018921	0.45929	0.23972	-0.004883	-0.007477
40.856	0.004272	-0.13275	-0.005646	-0.014343	-0.032196	0.012665	-0.030518	0.00824	0.003967	-0.029449	-0.013275	0.002289	0.059052	-0.089264	-0.19775	-0.011139	0.002441	-0.34256	0.027924	-0.020905	-0.024261	0.0177	-0.25909	0.087891	-0.1033	-0.000916	-0.11963	-0.023193	-0.71335	0.042114	-0.005798	-0.010681
40.857	-0.000305	-0.18112	0.00824	0.001678	-0.064697	-0.028534	-0.033875	0	0.027771	-0.055542	-0.05722	0.008087	0.089264	-0.12238	-0.40436	-0.018921	0.005493	-0.39536	0.88852	-0.052338	-0.019684	0.028534	-0.097351	0.09964	-0.27618	-0.003052	-0.061035	-0.007172	-0.87067	0.1059	-0.004883	-0.012054
40.858	0.010071	-0.19028	-0.019531	-0.010223	-0.043793	-0.056305	-0.045929	0.001373	0.03067	-0.040131	-0.053558	0.006866	0.06012	-0.14252	-0.30624	-0.032043	0.020752	-0.42236	0.071411	0.16068	-0.025024	0.014801	0.019226	-0.032501	-0.43137	0.001373	-0.08667	0.000458	0.62927	0.10346	-0.004883	-0.009155
40.859	0.01236	-0.20264	-0.02243	-0.006866	0.012817	-0.028381	-0.045624	0.007477	0.063324	-0.024872	-0.11246	0.010986	0.029602	-0.16434	-0.092773	-0.004578	0.006256	-0.3804	-0.31891	0.2356	-0.016327	0.024719	-0.022888	-0.098572	-0.38193	-0.004883	-0.062103	-0.053406	0.99045	0.095825	-0.001373	-0.007935
40.86	0.011749	-0.20996	0.006104	-0.00473	0.005035	-0.017395	-0.028229	0.001678	0.063019	-0.014343	-0.11688	0.005341	0.031891	-0.19455	-0.082092	-0.024567	0.006866	-0.26611	0.36316	0.004578	-0.020294	0.025177	0.014496	-0.10941	-0.2092	0.00351	-0.057983	-0.31311	1.0382	0.081329	0.000458	-0.005188
40.861	0.007629	-0.19959	0.01358	-0.005646	0.001221	-0.003204	-0.023041	0	0.066833	-0.005951	-0.087738	0.007172	0.023499	-0.16007	0.052795	-0.019379	0.003967	-0.24551	0.46646	-0.16785	-0.006561	0.010376	0.12054	-0.009766	0.045013	-0.000305	-0.10162	0.16495	0.5751	0.19165	-0.00412	-0.001526
40.862	0.013275	-0.17929	-0.007324	0.004578	-0.005035	0.005493	-0.029297	0.000458	0.066071	0.002441	0.002747	0.005188	-0.004272	-0.1329	0.1767	-0.019073	-0.001678	-0.23514	0.27908	-0.1178	-0.002747	0.040131	0.22156	0.064697	-0.026703	-0.004578	-0.014038	0.18524	0.62653	0.14206	-0.010223	-0.001373
40.863	0.004883	-0.18906	-0.011292	-0.032349	-0.007019	0.041351	-0.016022	0.005188	0.064697	-0.007324	0.049438	-0.000305	-0.001678	-0.12695	0.15976	-0.005493	-0.005798	-0.24826	0.23499	-0.062714	-0.017242	0.010529	0.10773	0.001526	-0.02655	-0.00351	0.035248	0.039368	0.68924	0.051575	-0.00412	0.006561
40.864	0.005798	-0.21698	-0.014038	-0.009003	-0.011292	0.053711	-0.003357	0.006256	0.066986	-0.005341	0.012207	0.011139	0.023041	-0.11093	0.085754	-0.019989	-0.012207	-0.29541	-0.60669	-0.037689	-0.012817	0.014191	-0.12299	-0.076294	0.011292	-0.013428	-0.003052	0.009155	-0.31586	-0.085907	-0.008392	-0.000458
40.865	0.003967	-0.18997	-0.032654	0.002594	-0.009613	0.077515	-0.029602	0.006104	0.077972	-0.014343	-0.018311	0.001831	0.014496	-0.11307	0.02655	0.009766	-0.010681	-0.19486	-0.43411	-0.072174	-0.005951	0.013275	-0.19119	-0.073547	0.04364	-0.029144	0.040283	0.001984	0.22369	-0.11597	-0.004272	-0.000916
40.866	0.009155	-0.2356	-0.04837	-0.00946	-0.010529	0.072784	0.011597	-0.000916	0.087585	-0.007477	-0.02594	0.005188	0.010529	-0.13702	0.021667	-0.002441	-0.011597	-0.12543	0.36835	-0.061493	-0.000916	-0.015869	-0.12314	0.10361	0.10284	-0.022583	0.048981	-0.000916	0.67047	-0.18845	-0.004883	0.00061
40.867	0.006561	-0.23041	-0.029755	0	-0.011444	0.086212	-0.013275	0.007172	0.10437	-0.021057	-0.036011	0.009155	0.051117	-0.11063	0.027924	0.00351	-0.006866	-0.15701	0.6633	-0.11704	-0.000916	0.003662	-0.13245	0.082855	0.088043	0.008087	0.043793	-0.006256	0.2179	-0.098877	-0.000916	0.004425
40.868	0.013123	-0.22903	0.026093	0.027008	-0.012512	0.075836	-0.013428	0.008698	0.12009	-0.028076	-0.033569	0.006256	0.070038	-0.06958	-0.018311	-0.005493	0.007019	-0.19608	0.20096	-0.069275	-0.012665	-0.01709	-0.11322	0.085449	0.07843	0.01297	0.041809	0.001678	-0.29358	0.29892	-0.003052	-0.000305
40.869	0.002594	-0.22049	0.051422	0.029297	-0.010681	0.058746	-0.009003	0.009918	0.11948	-0.005188	-0.010376	0.010071	0.025482	-0.076599	0.012665	-0.008698	0.024719	-0.2005	0.008698	-0.041199	-0.036011	-0.023499	-0.004578	0.028076	0.047455	0.01297	0.043335	-0.012817	-0.83832	0.14908	-0.002441	0
40.87	0.014954	-0.23331	-0.003204	0.014343	-0.015259	0.03891	-0.017242	0.009613	0.13046	0.009308	0.038147	0.003662	-0.01709	-0.091248	0.10437	-0.014648	0.020905	-0.2002	0.10727	-0.000153	-0.024872	-0.03067	0.005646	-0.017395	0.015411	0.010376	-0.03067	-0.001678	-0.27863	0.013123	-0.002441	-0.007324
40.871	0.007935	-0.26215	-0.021057	0.003662	-0.025024	0.028229	-0.031738	0.003662	0.13779	-0.014648	0.12558	0.005188	-0.011292	-0.063782	0.15457	0.00824	0.020599	-0.21133	0.32074	0.007019	-0.020752	-0.023804	-0.1207	0.025177	0.015717	0.000153	-0.010681	-0.000763	0.21194	-0.061493	-0.008392	-0.005188
40.872	0.003357	-0.25589	-0.074158	-0.008545	-0.029907	0.011597	-0.016022	0.009003	0.13611	-0.020752	0.13123	0.005493	-0.000305	-0.052948	0.10223	-0.006714	0.01358	-0.15198	0.080109	-0.057678	-0.0177	-0.016174	-0.14038	0.045166	0.004425	-0.010376	0.033569	-0.021057	0.36148	-0.10437	-0.002289	-0.00946
40.873	0.000763	-0.21469	-0.048523	-0.015106	-0.005493	0.018768	-0.011902	0.000305	0.14496	-0.040741	0.084686	0.008087	0.031281	-0.048828	0.043488	0.012054	0.012512	-0.081482	0.48401	-0.070801	-0.018311	-0.005493	-0.03891	0.007019	0.002289	-0.010376	0.066071	-0.37491	0.8606	-0.055695	-0.003967	-0.007019
40.874	0.005341	-0.21439	0.015564	-0.001373	-0.006409	-0.008392	-0.027466	0.005493	0.14938	-0.020294	0.040131	0.004578	0.041504	-0.02243	0.1918	0.006104	-0.001221	-0.068054	-0.032043	0.08255	-0.015411	0.003662	0.001678	-0.079498	-0.079956	-0.012817	0.13977	0.11154	0.47913	-0.097809	-0.003052	-0.014496
40.875	-0.1236	-0.22095	0.080719	-0.018158	-0.010681	-0.012817	-0.02594	0.002594	0.14603	-0.012207	-0.002136	0.005951	0.019226	-0.014191	0.24948	-0.009003	-0.00351	-0.091248	-0.30289	0.20081	-0.018158	0.002594	-0.31143	-0.19196	-0.041199	-0.010223	0.11169	0.12421	-0.36499	-0.11353	-0.009308	-0.011597
